<svg width="833.2400146484375px" height="270.56000366210935px" xmlns="http://www.w3.org/2000/svg" viewBox="-166.62000732421876 -60.280001831054676 833.2400146484375 270.56000366210935" style="background: rgba(0, 0, 0, 0);" preserveAspectRatio="xMidYMid"><defs><filter id="editing-extrusion" x="-100%" y="-100%" width="300%" height="300%"><feFlood result="color1" flood-color="#444"></feFlood><feConvolveMatrix order="8,8" divisor="1" kernelMatrix="1 0 0 0 0 0 0 0 0 1 0 0 0 0 0 0 0 0 1 0 0 0 0 0 0 0 0 1 0 0 0 0 0 0 0 0 1 0 0 0 0 0 0 0 0 1 0 0 0 0 0 0 0 0 1 0 0 0 0 0 0 0 0 1" in="SourceAlpha" result="extrude"></feConvolveMatrix><feComposite in="color1" in2="extrude" result="comp-extrude" operator="in"></feComposite><feOffset dx="4" dy="4" in="comp-extrude" result="offset-extrude"></feOffset><feMerge><feMergeNode in="offset-extrude"></feMergeNode><feMergeNode in="SourceGraphic"></feMergeNode></feMerge></filter></defs><g filter="url(#editing-extrusion)"><g transform="translate(-48.9800066947937, 125.82000923156738)"><path d="M51.88 0.92L51.88 0.92Q39.07 0.92 28.51-5.08L28.51-5.08L28.51-5.08Q17.95-11.09 11.81-21.85L11.81-21.85L11.81-21.85Q5.68-32.60 5.68-46.07L5.68-46.07L5.68-46.07Q5.68-59.53 11.81-70.29L11.81-70.29L11.81-70.29Q17.95-81.05 28.51-87.05L28.51-87.05L28.51-87.05Q39.07-93.06 51.88-93.06L51.88-93.06L51.88-93.06Q64.81-93.06 75.37-87.05L75.37-87.05L75.37-87.05Q85.93-81.05 92.00-70.36L92.00-70.36L92.00-70.36Q98.08-59.66 98.08-46.07L98.08-46.07L98.08-46.07Q98.08-32.47 92.00-21.78L92.00-21.78L92.00-21.78Q85.93-11.09 75.37-5.08L75.37-5.08L75.37-5.08Q64.81 0.92 51.88 0.92L51.88 0.92ZM51.88-9.90L51.88-9.90Q61.51-9.90 69.23-14.39L69.23-14.39L69.23-14.39Q76.96-18.88 81.38-27.06L81.38-27.06L81.38-27.06Q85.80-35.24 85.80-46.07L85.80-46.07L85.80-46.07Q85.80-56.89 81.38-65.14L81.38-65.14L81.38-65.14Q76.96-73.39 69.23-77.81L69.23-77.81L69.23-77.81Q61.51-82.24 51.88-82.24L51.88-82.24L51.88-82.24Q42.24-82.24 34.52-77.81L34.52-77.81L34.52-77.81Q26.80-73.39 22.37-65.14L22.37-65.14L22.37-65.14Q17.95-56.89 17.95-46.07L17.95-46.07L17.95-46.07Q17.95-35.24 22.37-27.06L22.37-27.06L22.37-27.06Q26.80-18.88 34.52-14.39L34.52-14.39L34.52-14.39Q42.24-9.90 51.88-9.90L51.88-9.90ZM118.27-72.34L140.84-11.35L163.28-72.34L176.22-72.34L147.84 0L133.72 0L105.34-72.34L118.27-72.34ZM183.48-36.43L183.48-36.43Q183.48-47.52 187.97-55.90L187.97-55.90L187.97-55.90Q192.46-64.28 200.31-68.90L200.31-68.90L200.31-68.90Q208.16-73.52 217.80-73.52L217.80-73.52L217.80-73.52Q227.30-73.52 234.30-69.43L234.30-69.43L234.30-69.43Q241.30-65.34 244.73-59.14L244.73-59.14L244.73-72.34L256.87-72.34L256.87 0L244.73 0L244.73-13.46L244.73-13.46Q241.16-7.13 234.10-2.97L234.10-2.97L234.10-2.97Q227.04 1.19 217.67 1.19L217.67 1.19L217.67 1.19Q208.03 1.19 200.24-3.56L200.24-3.56L200.24-3.56Q192.46-8.32 187.97-16.90L187.97-16.90L187.97-16.90Q183.48-25.48 183.48-36.43L183.48-36.43ZM244.73-36.30L244.73-36.30Q244.73-44.48 241.43-50.56L241.43-50.56L241.43-50.56Q238.13-56.63 232.52-59.86L232.52-59.86L232.52-59.86Q226.91-63.10 220.18-63.10L220.18-63.10L220.18-63.10Q213.44-63.10 207.90-59.93L207.90-59.93L207.90-59.93Q202.36-56.76 199.06-50.69L199.06-50.69L199.06-50.69Q195.76-44.62 195.76-36.43L195.76-36.43L195.76-36.43Q195.76-28.12 199.06-21.98L199.06-21.98L199.06-21.98Q202.36-15.84 207.90-12.61L207.90-12.61L207.90-12.61Q213.44-9.37 220.18-9.37L220.18-9.37L220.18-9.37Q226.91-9.37 232.52-12.61L232.52-12.61L232.52-12.61Q238.13-15.84 241.43-21.98L241.43-21.98L241.43-21.98Q244.73-28.12 244.73-36.30L244.73-36.30ZM305.84-92.00L305.84-92.00Q320.89-92.00 331.91-86.39L331.91-86.39L331.91-86.39Q342.94-80.78 348.81-70.36L348.81-70.36L348.81-70.36Q354.68-59.93 354.68-45.80L354.68-45.80L354.68-45.80Q354.68-31.68 348.81-21.32L348.81-21.32L348.81-21.32Q342.94-10.96 331.91-5.48L331.91-5.48L331.91-5.48Q320.89 0 305.84 0L305.84 0L277.20 0L277.20-92.00L305.84-92.00ZM305.84-9.24L305.84-9.24Q323.53-9.24 332.97-18.94L332.97-18.94L332.97-18.94Q342.41-28.64 342.41-45.80L342.41-45.80L342.41-45.80Q342.41-62.96 332.97-72.60L332.97-72.60L332.97-72.60Q323.53-82.24 305.84-82.24L305.84-82.24L289.21-82.24L289.21-9.24L305.84-9.24ZM382.54-58.61L382.54-58.61Q385.70-65.74 391.58-69.70L391.58-69.70L391.58-69.70Q397.45-73.66 405.90-73.66L405.90-73.66L405.90-61.25L402.73-61.25L402.73-61.25Q382.54-61.25 382.54-39.34L382.54-39.34L382.54 0L370.52 0L370.52-72.34L382.54-72.34L382.54-58.61ZM425.96-84.08L425.96-84.08Q422.53-84.08 420.16-86.46L420.16-86.46L420.16-86.46Q417.78-88.84 417.78-92.27L417.78-92.27L417.78-92.27Q417.78-95.70 420.16-98.08L420.16-98.08L420.16-98.08Q422.53-100.45 425.96-100.45L425.96-100.45L425.96-100.45Q429.26-100.45 431.57-98.08L431.57-98.08L431.57-98.08Q433.88-95.70 433.88-92.27L433.88-92.27L433.88-92.27Q433.88-88.84 431.57-86.46L431.57-86.46L431.57-86.46Q429.26-84.08 425.96-84.08L425.96-84.08ZM419.76-72.34L431.77-72.34L431.77 0L419.76 0L419.76-72.34ZM456.59-72.34L479.16-11.35L501.60-72.34L514.54-72.34L486.16 0L472.03 0L443.65-72.34L456.59-72.34ZM592.28-39.20L592.28-39.20Q592.28-35.90 591.89-32.08L591.89-32.08L534.07-32.08L534.07-32.08Q534.60-21.38 541.27-15.18L541.27-15.18L541.27-15.18Q547.93-8.98 557.57-8.98L557.57-8.98L557.57-8.98Q565.36-8.98 570.57-12.61L570.57-12.61L570.57-12.61Q575.78-16.24 577.90-22.31L577.90-22.31L590.83-22.31L590.83-22.31Q587.93-11.88 579.22-5.35L579.22-5.35L579.22-5.35Q570.50 1.19 557.57 1.19L557.57 1.19L557.57 1.19Q547.27 1.19 539.15-3.43L539.15-3.43L539.15-3.43Q531.04-8.05 526.42-16.57L526.42-16.57L526.42-16.57Q521.80-25.08 521.80-36.30L521.80-36.30L521.80-36.30Q521.80-47.52 526.28-55.97L526.28-55.97L526.28-55.97Q530.77-64.42 538.89-68.97L538.89-68.97L538.89-68.97Q547.01-73.52 557.57-73.52L557.57-73.52L557.57-73.52Q567.86-73.52 575.72-69.04L575.72-69.04L575.72-69.04Q583.57-64.55 587.93-56.76L587.93-56.76L587.93-56.76Q592.28-48.97 592.28-39.20L592.28-39.20ZM579.88-40.79L579.88-40.79Q579.88-47.92 576.84-53.00L576.84-53.00L576.84-53.00Q573.80-58.08 568.59-60.72L568.59-60.72L568.59-60.72Q563.38-63.36 557.04-63.36L557.04-63.36L557.04-63.36Q547.80-63.36 541.33-57.35L541.33-57.35L541.33-57.35Q534.86-51.35 534.20-40.79L534.20-40.79L579.88-40.79Z" fill="#ccc"></path></g></g><style>text {
  font-size: 64px;
  font-family: Arial Black;
  dominant-baseline: central;
  text-anchor: middle;
}</style></svg>